<?xml version="1.0" encoding="UTF-8"?>
<svg id="Capa_1" data-name="Capa 1" xmlns="http://www.w3.org/2000/svg" viewBox="0 0 805 600">
  <defs>
    <style>
      .cls-1 {
        fill: #fedd8d;
      }

      .cls-1, .cls-2, .cls-3, .cls-4, .cls-5, .cls-6, .cls-7 {
        stroke-width: 0px;
      }

      .cls-8 {
        font-family: Helvetica, Helvetica;
      }

      .cls-8, .cls-9 {
        fill: #000;
        font-size: 10px;
      }

      .cls-8, .cls-9, .cls-10, .cls-11 {
        isolation: isolate;
      }

      .cls-12 {
        letter-spacing: -.092em;
      }

      .cls-9 {
        font-family: ArialMT, Arial;
      }

      .cls-2 {
        fill: #69bda9;
      }

      .cls-13, .cls-14 {
        stroke: #fff;
      }

      .cls-13, .cls-14, .cls-15, .cls-16, .cls-17, .cls-18, .cls-19, .cls-20, .cls-21, .cls-22, .cls-23 {
        fill: none;
      }

      .cls-3, .cls-24 {
        fill: #5e4fa2;
      }

      .cls-14, .cls-19, .cls-21, .cls-25 {
        stroke-dasharray: 0 0 0 4;
      }

      .cls-15 {
        stroke: #9e0142;
      }

      .cls-16 {
        stroke: #e0f3a1;
      }

      .cls-4 {
        fill: #f0704a;
      }

      .cls-17, .cls-24, .cls-26 {
        stroke: #5e4fa2;
      }

      .cls-18, .cls-27 {
        stroke: #f0704a;
      }

      .cls-19, .cls-25, .cls-22 {
        stroke: #fedd8d;
      }

      .cls-10 {
        fill: #7b7b7b;
        font-family: Arial-BoldMT, Arial;
        font-size: 12px;
        font-weight: 700;
      }

      .cls-20 {
        stroke: #000;
      }

      .cls-21, .cls-23 {
        stroke: #69bda9;
      }

      .cls-25, .cls-27, .cls-26, .cls-6 {
        fill: #fff;
      }

      .cls-5 {
        fill: #e0f3a1;
      }

      .cls-7 {
        fill: #9e0142;
      }
    </style>
  </defs>
  <rect id="background" class="cls-6" width="805" height="600"/>
  <g id="viz">
    <g id="y_axis" data-name="y axis">
      <path class="cls-20" d="M44,570h6V10h-6"/>
      <g>
        <line class="cls-20" x1="50" y1="570" x2="44" y2="570"/>
        <g class="cls-11">
          <text class="cls-8" transform="translate(27.1 573.2)"><tspan x="0" y="0">4.0</tspan></text>
        </g>
      </g>
      <g>
        <line class="cls-20" x1="50" y1="532.7" x2="44" y2="532.7"/>
        <g class="cls-11">
          <text class="cls-8" transform="translate(27.1 535.9)"><tspan x="0" y="0">4.2</tspan></text>
        </g>
      </g>
      <g>
        <line class="cls-20" x1="50" y1="495.3" x2="44" y2="495.3"/>
        <g class="cls-11">
          <text class="cls-8" transform="translate(27.1 498.5)"><tspan x="0" y="0">4.4</tspan></text>
        </g>
      </g>
      <g>
        <line class="cls-20" x1="50" y1="458" x2="44" y2="458"/>
        <g class="cls-11">
          <text class="cls-8" transform="translate(27.1 461.2)"><tspan x="0" y="0">4.6</tspan></text>
        </g>
      </g>
      <g>
        <line class="cls-20" x1="50" y1="420.7" x2="44" y2="420.7"/>
        <g class="cls-11">
          <text class="cls-8" transform="translate(27.1 423.9)"><tspan x="0" y="0">4.8</tspan></text>
        </g>
      </g>
      <g>
        <line class="cls-20" x1="50" y1="383.3" x2="44" y2="383.3"/>
        <g class="cls-11">
          <text class="cls-8" transform="translate(27.1 386.5)"><tspan x="0" y="0">5.0</tspan></text>
        </g>
      </g>
      <g>
        <line class="cls-20" x1="50" y1="346" x2="44" y2="346"/>
        <g class="cls-11">
          <text class="cls-8" transform="translate(27.1 349.2)"><tspan x="0" y="0">5.2</tspan></text>
        </g>
      </g>
      <g>
        <line class="cls-20" x1="50" y1="308.7" x2="44" y2="308.7"/>
        <g class="cls-11">
          <text class="cls-8" transform="translate(27.1 311.9)"><tspan x="0" y="0">5.4</tspan></text>
        </g>
      </g>
      <g>
        <line class="cls-20" x1="50" y1="271.3" x2="44" y2="271.3"/>
        <g class="cls-11">
          <text class="cls-8" transform="translate(27.1 274.5)"><tspan x="0" y="0">5.6</tspan></text>
        </g>
      </g>
      <g>
        <line class="cls-20" x1="50" y1="234" x2="44" y2="234"/>
        <g class="cls-11">
          <text class="cls-8" transform="translate(27.1 237.2)"><tspan x="0" y="0">5.8</tspan></text>
        </g>
      </g>
      <g>
        <line class="cls-20" x1="50" y1="196.7" x2="44" y2="196.7"/>
        <g class="cls-11">
          <text class="cls-8" transform="translate(27.1 199.9)"><tspan x="0" y="0">6.0</tspan></text>
        </g>
      </g>
      <g>
        <line class="cls-20" x1="50" y1="159.3" x2="44" y2="159.3"/>
        <g class="cls-11">
          <text class="cls-8" transform="translate(27.1 162.5)"><tspan x="0" y="0">6.2</tspan></text>
        </g>
      </g>
      <g>
        <line class="cls-20" x1="50" y1="122" x2="44" y2="122"/>
        <g class="cls-11">
          <text class="cls-8" transform="translate(27.1 125.2)"><tspan x="0" y="0">6.4</tspan></text>
        </g>
      </g>
      <g>
        <line class="cls-20" x1="50" y1="84.7" x2="44" y2="84.7"/>
        <g class="cls-11">
          <text class="cls-8" transform="translate(27.1 87.9)"><tspan x="0" y="0">6.6</tspan></text>
        </g>
      </g>
      <g>
        <line class="cls-20" x1="50" y1="47.3" x2="44" y2="47.3"/>
        <g class="cls-11">
          <text class="cls-8" transform="translate(27.1 50.5)"><tspan x="0" y="0">6.8</tspan></text>
        </g>
      </g>
      <g>
        <line class="cls-20" x1="50" y1="10" x2="44" y2="10"/>
        <g class="cls-11">
          <text class="cls-8" transform="translate(27.1 13.2)"><tspan x="0" y="0">7.0</tspan></text>
        </g>
      </g>
      <g class="cls-11">
        <text class="cls-10" transform="translate(54 20.3)"><tspan x="0" y="0">nota_proyecto</tspan></text>
      </g>
    </g>
    <g id="x_axis" data-name="x axis">
      <path class="cls-20" d="M50,576v-6h745v6"/>
      <g>
        <line class="cls-20" x1="113" y1="570" x2="113" y2="576"/>
        <g class="cls-11">
          <text class="cls-8" transform="translate(77.9 586.7)"><tspan x="0" y="0">Diseñadora </tspan><tspan class="cls-12" x="53.921" y="0">V</tspan><tspan x="59.673" y="0">.M</tspan></text>
        </g>
      </g>
      <g>
        <line class="cls-20" x1="237" y1="570" x2="237" y2="576"/>
        <g class="cls-11">
          <text class="cls-8" transform="translate(211.4 586.1)"><tspan x="0" y="0">Diseñadora</tspan></text>
        </g>
      </g>
      <g>
        <line class="cls-20" x1="361" y1="570" x2="361" y2="576"/>
        <g class="cls-11">
          <text class="cls-8" transform="translate(328 586.9)"><tspan x="0" y="0">Diseñador I.S</tspan></text>
        </g>
      </g>
      <g>
        <line class="cls-20" x1="485" y1="570" x2="485" y2="576"/>
        <g class="cls-11">
          <text class="cls-8" transform="translate(451.4 586.7)"><tspan x="0" y="0">Diseñadora I.S</tspan></text>
        </g>
      </g>
      <g>
        <line class="cls-20" x1="609" y1="570" x2="609" y2="576"/>
        <g class="cls-11">
          <text class="cls-8" transform="translate(577.6 586.3)"><tspan x="0" y="0">Diseñador </tspan><tspan class="cls-12" x="48.359" y="0">V</tspan><tspan x="54.111" y="0">.M</tspan></text>
        </g>
      </g>
      <g>
        <line class="cls-20" x1="733" y1="570" x2="733" y2="576"/>
        <g class="cls-11">
          <text class="cls-8" transform="translate(710.2 586.1)"><tspan x="0" y="0">Diseñador</tspan></text>
        </g>
      </g>
    </g>
    <g id="boxplots">
      <g>
        <line class="cls-24" x1="113" y1="10" x2="113" y2="546.7"/>
        <line class="cls-17" x1="103" y1="10" x2="123" y2="10"/>
        <line class="cls-17" x1="103" y1="546.7" x2="123" y2="546.7"/>
        <rect class="cls-3" x="103" y="103.3" width="20" height="177.3"/>
        <line class="cls-13" x1="103" y1="196.7" x2="123" y2="196.7"/>
        <circle class="cls-26" cx="113" cy="570" r="1"/>
        <circle class="cls-26" cx="113" cy="570" r="1"/>
      </g>
      <g>
        <line class="cls-16" x1="237" y1="10" x2="237" y2="476.7"/>
        <line class="cls-16" x1="227" y1="10" x2="247" y2="10"/>
        <line class="cls-16" x1="227" y1="476.7" x2="247" y2="476.7"/>
        <rect class="cls-5" x="227" y="75.3" width="20" height="186.7"/>
        <line class="cls-13" x1="227" y1="196.7" x2="247" y2="196.7"/>
      </g>
      <g>
        <line class="cls-18" x1="361" y1="52" x2="361" y2="388"/>
        <line class="cls-18" x1="351" y1="52" x2="371" y2="52"/>
        <line class="cls-18" x1="351" y1="388" x2="371" y2="388"/>
        <rect class="cls-4" x="351" y="178" width="20" height="84"/>
        <line class="cls-13" x1="351" y1="215.3" x2="371" y2="215.3"/>
        <circle class="cls-27" cx="361" cy="476.7" r="1"/>
        <circle class="cls-27" cx="361" cy="47.3" r="1"/>
      </g>
      <g>
        <line class="cls-23" x1="485" y1="10" x2="485" y2="570"/>
        <line class="cls-21" x1="475" y1="10" x2="495" y2="10"/>
        <line class="cls-21" x1="475" y1="570" x2="495" y2="570"/>
        <rect class="cls-2" x="475" y="75.3" width="20" height="214.7"/>
        <line class="cls-14" x1="475" y1="196.7" x2="495" y2="196.7"/>
      </g>
      <g>
        <line class="cls-22" x1="609" y1="103.3" x2="609" y2="430"/>
        <line class="cls-19" x1="599" y1="103.3" x2="619" y2="103.3"/>
        <line class="cls-19" x1="599" y1="430" x2="619" y2="430"/>
        <rect class="cls-1" x="599" y="196.7" width="20" height="93.3"/>
        <line class="cls-14" x1="599" y1="234" x2="619" y2="234"/>
        <circle class="cls-25" cx="609" cy="476.7" r="1"/>
        <circle class="cls-25" cx="609" cy="476.7" r="1"/>
        <circle class="cls-25" cx="609" cy="570" r="1"/>
      </g>
      <g>
        <line class="cls-15" x1="733" y1="10" x2="733" y2="439.3"/>
        <line class="cls-15" x1="723" y1="10" x2="743" y2="10"/>
        <line class="cls-15" x1="723" y1="439.3" x2="743" y2="439.3"/>
        <rect class="cls-7" x="723" y="159.3" width="20" height="130.7"/>
        <line class="cls-13" x1="723" y1="196.7" x2="743" y2="196.7"/>
      </g>
    </g>
    <g id="boxplots-2">
      <g>
        <g class="cls-11">
          <text class="cls-9" transform="translate(127 10)"><tspan x="0" y="0">7</tspan></text>
        </g>
        <g class="cls-11">
          <text class="cls-9" transform="translate(127 546.7)"><tspan x="0" y="0">4.125</tspan></text>
        </g>
        <g class="cls-11">
          <text class="cls-9" transform="translate(127 196.7)"><tspan x="0" y="0">6</tspan></text>
        </g>
        <g class="cls-11">
          <text class="cls-9" transform="translate(79.5 280.7)"><tspan x="0" y="0">5.55</tspan></text>
        </g>
        <g class="cls-11">
          <text class="cls-9" transform="translate(95.1 103.3)"><tspan x="0" y="0">6.5</tspan></text>
        </g>
      </g>
      <g>
        <g class="cls-11">
          <text class="cls-9" transform="translate(251 10)"><tspan x="0" y="0">7</tspan></text>
        </g>
        <g class="cls-11">
          <text class="cls-9" transform="translate(251 476.7)"><tspan x="0" y="0">4.5</tspan></text>
        </g>
        <g class="cls-11">
          <text class="cls-9" transform="translate(251 196.7)"><tspan x="0" y="0">6</tspan></text>
        </g>
        <g class="cls-11">
          <text class="cls-9" transform="translate(203.5 262)"><tspan x="0" y="0">5.65</tspan></text>
        </g>
        <g class="cls-11">
          <text class="cls-9" transform="translate(213.5 75.3)"><tspan x="0" y="0">6.65</tspan></text>
        </g>
      </g>
      <g>
        <g class="cls-11">
          <text class="cls-9" transform="translate(375 52)"><tspan x="0" y="0">6.774999999999999</tspan></text>
        </g>
        <g class="cls-11">
          <text class="cls-9" transform="translate(375 388)"><tspan x="0" y="0">4.975000000000001</tspan></text>
        </g>
        <g class="cls-11">
          <text class="cls-9" transform="translate(375 215.3)"><tspan x="0" y="0">5.9</tspan></text>
        </g>
        <g class="cls-11">
          <text class="cls-9" transform="translate(327.5 262)"><tspan x="0" y="0">5.65</tspan></text>
        </g>
        <g class="cls-11">
          <text class="cls-9" transform="translate(343.1 178)"><tspan x="0" y="0">6.1</tspan></text>
        </g>
      </g>
      <g>
        <g class="cls-11">
          <text class="cls-9" transform="translate(499 10)"><tspan x="0" y="0">7</tspan></text>
        </g>
        <g class="cls-11">
          <text class="cls-9" transform="translate(499 570)"><tspan x="0" y="0">4</tspan></text>
        </g>
        <g class="cls-11">
          <text class="cls-9" transform="translate(499 196.7)"><tspan x="0" y="0">6</tspan></text>
        </g>
        <g class="cls-11">
          <text class="cls-9" transform="translate(457.1 290)"><tspan x="0" y="0">5.5</tspan></text>
        </g>
        <g class="cls-11">
          <text class="cls-9" transform="translate(461.5 75.3)"><tspan x="0" y="0">6.65</tspan></text>
        </g>
      </g>
      <g>
        <g class="cls-11">
          <text class="cls-9" transform="translate(623 103.3)"><tspan x="0" y="0">6.5</tspan></text>
        </g>
        <g class="cls-11">
          <text class="cls-9" transform="translate(623 430)"><tspan x="0" y="0">4.75</tspan></text>
        </g>
        <g class="cls-11">
          <text class="cls-9" transform="translate(623 234)"><tspan x="0" y="0">5.8</tspan></text>
        </g>
        <g class="cls-11">
          <text class="cls-9" transform="translate(581.1 290)"><tspan x="0" y="0">5.5</tspan></text>
        </g>
        <g class="cls-11">
          <text class="cls-9" transform="translate(599.4 196.7)"><tspan x="0" y="0">6</tspan></text>
        </g>
      </g>
      <g>
        <g class="cls-11">
          <text class="cls-9" transform="translate(747 10)"><tspan x="0" y="0">7</tspan></text>
        </g>
        <g class="cls-11">
          <text class="cls-9" transform="translate(747 439.3)"><tspan x="0" y="0">4.7</tspan></text>
        </g>
        <g class="cls-11">
          <text class="cls-9" transform="translate(747 196.7)"><tspan x="0" y="0">6</tspan></text>
        </g>
        <g class="cls-11">
          <text class="cls-9" transform="translate(705.1 290)"><tspan x="0" y="0">5.5</tspan></text>
        </g>
        <g class="cls-11">
          <text class="cls-9" transform="translate(715.1 159.3)"><tspan x="0" y="0">6.2</tspan></text>
        </g>
      </g>
    </g>
  </g>
</svg>