<svg xmlns="http://www.w3.org/2000/svg" width="805" height="600"><rect width="805" height="600" x="0" y="0" fill="#FFFFFF" id="background"/><g id="viz"><g transform="translate(0,0)"><g transform="translate(50,20)"><g class="bars"><rect id="undefined - Apreueban" x="136.06797160929875" y="536" height="24" width="32.633390571399886" fill="#1f77b4"/><rect id="undefined - Reprueban" x="169.68691620757977" y="352" height="208" width="32.633390571399886" fill="#d0021b"/><rect id="undefined - Apreueban" x="34.41504120636834" y="480.00000000000006" height="79.99999999999994" width="32.633390571399886" fill="#1f77b4"/><rect id="undefined - Reprueban" x="68.03398580464938" y="288" height="272" width="32.633390571399886" fill="#d0021b"/><rect id="undefined - Apreueban" x="237.72090201222915" y="472" height="88" width="32.633390571399886" fill="#1f77b4"/><rect id="undefined - Reprueban" x="271.33984661051016" y="88" height="472" width="32.633390571399886" fill="#d0021b"/><rect id="undefined - Apreueban" x="339.37383241515954" y="400" height="160" width="32.633390571399886" fill="#1f77b4"/><rect id="undefined - Reprueban" x="372.99277701344056" y="184.00000000000003" height="376" width="32.633390571399886" fill="#d0021b"/><rect id="undefined - Apreueban" x="441.02676281808994" y="120.00000000000001" height="440" width="32.633390571399886" fill="#1f77b4"/><rect id="undefined - Reprueban" x="474.64570741637095" y="215.99999999999997" height="344" width="32.633390571399886" fill="#d0021b"/><rect id="undefined - Apreueban" x="542.6796932210202" y="248" height="312" width="32.633390571399886" fill="#1f77b4"/><rect id="undefined - Reprueban" x="576.2986378193013" y="392" height="168" width="32.633390571399886" fill="#d0021b"/><rect id="undefined - Apreueban" x="644.3326236239507" y="7.999999999999972" height="552" width="32.633390571399886" fill="#1f77b4"/><rect id="undefined - Reprueban" x="677.9515682222318" y="152.00000000000003" height="408" width="32.633390571399886" fill="#d0021b"/></g><g id="xAxis" transform="translate(0,560)" fill="none" font-size="10" font-family="sans-serif" text-anchor="middle"><path class="domain" stroke="currentColor" d="M0,0H745"/><g class="tick" opacity="1" transform="translate(67.54120879120879,0)"><line stroke="currentColor" y2="6"/><text fill="currentColor" y="9" dy="0.71em">2021-1</text></g><g class="tick" opacity="1" transform="translate(169.19413919413918,0)"><line stroke="currentColor" y2="6"/><text fill="currentColor" y="9" dy="0.71em">2021-2</text></g><g class="tick" opacity="1" transform="translate(270.8470695970696,0)"><line stroke="currentColor" y2="6"/><text fill="currentColor" y="9" dy="0.71em">2022-2</text></g><g class="tick" opacity="1" transform="translate(372.5,0)"><line stroke="currentColor" y2="6"/><text fill="currentColor" y="9" dy="0.71em">2023-1</text></g><g class="tick" opacity="1" transform="translate(474.1529304029304,0)"><line stroke="currentColor" y2="6"/><text fill="currentColor" y="9" dy="0.71em">2023-2</text></g><g class="tick" opacity="1" transform="translate(575.8058608058607,0)"><line stroke="currentColor" y2="6"/><text fill="currentColor" y="9" dy="0.71em">2024-1</text></g><g class="tick" opacity="1" transform="translate(677.4587912087911,0)"><line stroke="currentColor" y2="6"/><text fill="currentColor" y="9" dy="0.71em">2024-2</text></g></g><g id="yAxis" fill="none" font-size="10" font-family="sans-serif" text-anchor="end"><path class="domain" stroke="currentColor" d="M0,560V0"/><g class="tick" opacity="1" transform="translate(0,560)"><line stroke="currentColor" x2="-6"/><text fill="currentColor" x="-9" dy="0.32em">0</text></g><g class="tick" opacity="1" transform="translate(0,520)"><line stroke="currentColor" x2="-6"/><text fill="currentColor" x="-9" dy="0.32em">5</text></g><g class="tick" opacity="1" transform="translate(0,480.00000000000006)"><line stroke="currentColor" x2="-6"/><text fill="currentColor" x="-9" dy="0.32em">10</text></g><g class="tick" opacity="1" transform="translate(0,440)"><line stroke="currentColor" x2="-6"/><text fill="currentColor" x="-9" dy="0.32em">15</text></g><g class="tick" opacity="1" transform="translate(0,400)"><line stroke="currentColor" x2="-6"/><text fill="currentColor" x="-9" dy="0.32em">20</text></g><g class="tick" opacity="1" transform="translate(0,359.99999999999994)"><line stroke="currentColor" x2="-6"/><text fill="currentColor" x="-9" dy="0.32em">25</text></g><g class="tick" opacity="1" transform="translate(0,320)"><line stroke="currentColor" x2="-6"/><text fill="currentColor" x="-9" dy="0.32em">30</text></g><g class="tick" opacity="1" transform="translate(0,280)"><line stroke="currentColor" x2="-6"/><text fill="currentColor" x="-9" dy="0.32em">35</text></g><g class="tick" opacity="1" transform="translate(0,240.00000000000003)"><line stroke="currentColor" x2="-6"/><text fill="currentColor" x="-9" dy="0.32em">40</text></g><g class="tick" opacity="1" transform="translate(0,199.99999999999997)"><line stroke="currentColor" x2="-6"/><text fill="currentColor" x="-9" dy="0.32em">45</text></g><g class="tick" opacity="1" transform="translate(0,160)"><line stroke="currentColor" x2="-6"/><text fill="currentColor" x="-9" dy="0.32em">50</text></g><g class="tick" opacity="1" transform="translate(0,120.00000000000001)"><line stroke="currentColor" x2="-6"/><text fill="currentColor" x="-9" dy="0.32em">55</text></g><g class="tick" opacity="1" transform="translate(0,80.00000000000003)"><line stroke="currentColor" x2="-6"/><text fill="currentColor" x="-9" dy="0.32em">60</text></g><g class="tick" opacity="1" transform="translate(0,39.999999999999986)"><line stroke="currentColor" x2="-6"/><text fill="currentColor" x="-9" dy="0.32em">65</text></g><g class="tick" opacity="1" transform="translate(0,0)"><line stroke="currentColor" x2="-6"/><text fill="currentColor" x="-9" dy="0.32em">70</text></g></g><text y="556" x="745" text-anchor="end" style="font-family: Arial, sans-serif; font-size: 12px; fill: rgb(123, 123, 123); font-weight: bold;">Sets</text><text y="0" x="4" dominant-baseline="hanging" text-anchor="start" style="font-family: Arial, sans-serif; font-size: 12px; fill: rgb(123, 123, 123); font-weight: bold;">Value</text></g><text x="4" y="4" style="font-family: Arial, sans-serif; font-size: 12px; fill: black; font-weight: bold; dominant-baseline: hanging;"/></g><g id="grid"><rect x="0" y="0" width="805" height="600" fill="none" stroke="#ccc"/></g></g></svg>