<svg xmlns="http://www.w3.org/2000/svg" viewBox="0 0 800 400"><rect width="805" height="600" x="0" y="0" fill="#FFFFFF" id="background"/><g id="viz"><g transform="translate(0,0)"><g transform="translate(50,20)"><g id="Reprueban" fill="#000000"><rect x="0.9986595174262902" y="448" width="105.28724626579853" height="112"/><rect x="107.2845653006511" y="413.53846153846155" width="105.28724626579853" height="146.46153846153845"/><rect x="213.5704710838759" y="305.84615384615387" width="105.28724626579853" height="254.15384615384613"/><rect x="319.8563768671007" y="357.5384615384615" width="105.28724626579853" height="202.4615384615385"/><rect x="426.1422826503255" y="374.76923076923083" width="105.28724626579853" height="185.23076923076917"/><rect x="532.4281884335503" y="469.53846153846155" width="105.28724626579853" height="90.46153846153845"/><rect x="638.7140942167752" y="340.3076923076923" width="105.28724626579853" height="219.69230769230768"/></g><g id="Aprueban Visualidad y Medios" fill="#2ca02c"><rect x="0.9986595174262902" y="439.38461538461536" width="105.28724626579853" height="8.615384615384528"/><rect x="107.2845653006511" y="387.6923076923077" width="105.28724626579853" height="25.846153846153925"/><rect x="213.5704710838759" y="280" width="105.28724626579853" height="25.846153846153925"/><rect x="319.8563768671007" y="292.9230769230769" width="105.28724626579853" height="64.61538461538464"/><rect x="426.1422826503255" y="245.53846153846155" width="105.28724626579853" height="129.23076923076928"/><rect x="532.4281884335503" y="353.2307692307692" width="105.28724626579853" height="116.30769230769232"/><rect x="638.7140942167752" y="180.9230769230769" width="105.28724626579853" height="159.38461538461536"/></g><g id="Aprueban Diseñadores" fill="#1f77b4"><rect x="0.9986595174262902" y="435.0769230769231" width="105.28724626579853" height="4.307692307692264"/><rect x="107.2845653006511" y="387.6923076923077" width="105.28724626579853" height="0"/><rect x="213.5704710838759" y="280" width="105.28724626579853" height="0"/><rect x="319.8563768671007" y="275.69230769230774" width="105.28724626579853" height="17.230769230769283"/><rect x="426.1422826503255" y="215.38461538461536" width="105.28724626579853" height="30.15384615384619"/><rect x="532.4281884335503" y="336" width="105.28724626579853" height="17.230769230769283"/><rect x="638.7140942167752" y="146.46153846153845" width="105.28724626579853" height="34.46153846153845"/></g><g id="Aprueban Industrial y Servicios" fill="#ff7f0e"><rect x="0.9986595174262902" y="435.0769230769231" width="105.28724626579853" height="0"/><rect x="107.2845653006511" y="366.15384615384613" width="105.28724626579853" height="21.538461538461547"/><rect x="213.5704710838759" y="258.46153846153845" width="105.28724626579853" height="21.538461538461547"/><rect x="319.8563768671007" y="236.92307692307696" width="105.28724626579853" height="38.76923076923072"/><rect x="426.1422826503255" y="99.0769230769231" width="105.28724626579853" height="116.30769230769232"/><rect x="532.4281884335503" y="271.3846153846154" width="105.28724626579853" height="64.61538461538464"/><rect x="638.7140942167752" y="21.538461538461526" width="105.28724626579853" height="124.9230769230769"/></g><g id="xAxis" transform="translate(0,560)" fill="none" font-size="10" font-family="sans-serif" text-anchor="middle"><path class="domain" stroke="currentColor" d="M0,0H745"/><g class="tick" opacity="1" transform="translate(53.642282650325555,0)"><line stroke="currentColor" y2="6"/><text fill="currentColor" y="9" dy="0.71em">2021-2</text></g><g class="tick" opacity="1" transform="translate(159.92818843355036,0)"><line stroke="currentColor" y2="6"/><text fill="currentColor" y="9" dy="0.71em">2022-1</text></g><g class="tick" opacity="1" transform="translate(266.21409421677515,0)"><line stroke="currentColor" y2="6"/><text fill="currentColor" y="9" dy="0.71em">2022-2</text></g><g class="tick" opacity="1" transform="translate(372.5,0)"><line stroke="currentColor" y2="6"/><text fill="currentColor" y="9" dy="0.71em">2023-1</text></g><g class="tick" opacity="1" transform="translate(478.7859057832248,0)"><line stroke="currentColor" y2="6"/><text fill="currentColor" y="9" dy="0.71em">2023-2</text></g><g class="tick" opacity="1" transform="translate(585.0718115664496,0)"><line stroke="currentColor" y2="6"/><text fill="currentColor" y="9" dy="0.71em">2024-1</text></g><g class="tick" opacity="1" transform="translate(691.3577173496744,0)"><line stroke="currentColor" y2="6"/><text fill="currentColor" y="9" dy="0.71em">2024-2</text></g></g><g id="yAxis" fill="none" font-size="10" font-family="sans-serif" text-anchor="end"><path class="domain" stroke="currentColor" d="M0,560V0"/><g class="tick" opacity="1" transform="translate(0,560)"><line stroke="currentColor" x2="-6"/><text fill="currentColor" x="-9" dy="0.32em">0</text></g><g class="tick" opacity="1" transform="translate(0,516.9230769230769)"><line stroke="currentColor" x2="-6"/><text fill="currentColor" x="-9" dy="0.32em">10</text></g><g class="tick" opacity="1" transform="translate(0,473.84615384615387)"><line stroke="currentColor" x2="-6"/><text fill="currentColor" x="-9" dy="0.32em">20</text></g><g class="tick" opacity="1" transform="translate(0,430.7692307692307)"><line stroke="currentColor" x2="-6"/><text fill="currentColor" x="-9" dy="0.32em">30</text></g><g class="tick" opacity="1" transform="translate(0,387.6923076923077)"><line stroke="currentColor" x2="-6"/><text fill="currentColor" x="-9" dy="0.32em">40</text></g><g class="tick" opacity="1" transform="translate(0,344.61538461538464)"><line stroke="currentColor" x2="-6"/><text fill="currentColor" x="-9" dy="0.32em">50</text></g><g class="tick" opacity="1" transform="translate(0,301.53846153846155)"><line stroke="currentColor" x2="-6"/><text fill="currentColor" x="-9" dy="0.32em">60</text></g><g class="tick" opacity="1" transform="translate(0,258.46153846153845)"><line stroke="currentColor" x2="-6"/><text fill="currentColor" x="-9" dy="0.32em">70</text></g><g class="tick" opacity="1" transform="translate(0,215.38461538461536)"><line stroke="currentColor" x2="-6"/><text fill="currentColor" x="-9" dy="0.32em">80</text></g><g class="tick" opacity="1" transform="translate(0,172.30769230769232)"><line stroke="currentColor" x2="-6"/><text fill="currentColor" x="-9" dy="0.32em">90</text></g><g class="tick" opacity="1" transform="translate(0,129.2307692307692)"><line stroke="currentColor" x2="-6"/><text fill="currentColor" x="-9" dy="0.32em">100</text></g><g class="tick" opacity="1" transform="translate(0,86.15384615384616)"><line stroke="currentColor" x2="-6"/><text fill="currentColor" x="-9" dy="0.32em">110</text></g><g class="tick" opacity="1" transform="translate(0,43.07692307692305)"><line stroke="currentColor" x2="-6"/><text fill="currentColor" x="-9" dy="0.32em">120</text></g><g class="tick" opacity="1" transform="translate(0,0)"><line stroke="currentColor" x2="-6"/><text fill="currentColor" x="-9" dy="0.32em">130</text></g></g><text y="556" x="745" text-anchor="end" style="font-family: Arial, sans-serif; font-size: 12px; fill: rgb(123, 123, 123); font-weight: bold;">Semestre</text></g><text x="4" y="4" style="font-family: Arial, sans-serif; font-size: 12px; fill: black; font-weight: bold; dominant-baseline: hanging;"/></g><g id="grid"><rect x="0" y="0" width="805" height="600" fill="none" stroke="#ccc"/></g></g></svg>