<svg xmlns="http://www.w3.org/2000/svg" viewBox="0 0 800 400"><rect width="805" height="600" x="0" y="0" fill="#FFFFFF" id="background"/><g id="viz"><g transform="translate(0,0)"><g transform="translate(50,20)"><g id="Apreueban" fill="#7ed321"><rect x="107.2845653006511" y="546" width="105.28724626579853" height="14"/><rect x="0.9986595174262902" y="513.3333333333333" width="105.28724626579853" height="46.66666666666674"/><rect x="213.5704710838759" y="508.6666666666667" width="105.28724626579853" height="51.333333333333314"/><rect x="319.8563768671007" y="466.6666666666667" width="105.28724626579853" height="93.33333333333331"/><rect x="426.1422826503255" y="303.33333333333337" width="105.28724626579853" height="256.66666666666663"/><rect x="532.4281884335503" y="378" width="105.28724626579853" height="182"/><rect x="638.7140942167752" y="238.00000000000003" width="105.28724626579853" height="322"/></g><g id="Reprueban" fill="#d0021b"><rect x="107.2845653006511" y="424.66666666666663" width="105.28724626579853" height="121.33333333333331"/><rect x="0.9986595174262902" y="354.66666666666663" width="105.28724626579853" height="158.66666666666669"/><rect x="213.5704710838759" y="233.33333333333331" width="105.28724626579853" height="275.33333333333337"/><rect x="319.8563768671007" y="247.33333333333331" width="105.28724626579853" height="219.33333333333331"/><rect x="426.1422826503255" y="102.66666666666667" width="105.28724626579853" height="200.66666666666669"/><rect x="532.4281884335503" y="280" width="105.28724626579853" height="98"/><rect x="638.7140942167752" y="0" width="105.28724626579853" height="238"/></g><g id="xAxis" transform="translate(0,560)" fill="none" font-size="10" font-family="sans-serif" text-anchor="middle"><path class="domain" stroke="currentColor" d="M0,0H745"/><g class="tick" opacity="1" transform="translate(53.642282650325555,0)"><line stroke="currentColor" y2="6"/><text fill="currentColor" y="9" dy="0.71em">2021-1</text></g><g class="tick" opacity="1" transform="translate(159.92818843355036,0)"><line stroke="currentColor" y2="6"/><text fill="currentColor" y="9" dy="0.71em">2021-2</text></g><g class="tick" opacity="1" transform="translate(266.21409421677515,0)"><line stroke="currentColor" y2="6"/><text fill="currentColor" y="9" dy="0.71em">2022-2</text></g><g class="tick" opacity="1" transform="translate(372.5,0)"><line stroke="currentColor" y2="6"/><text fill="currentColor" y="9" dy="0.71em">2023-1</text></g><g class="tick" opacity="1" transform="translate(478.7859057832248,0)"><line stroke="currentColor" y2="6"/><text fill="currentColor" y="9" dy="0.71em">2023-2</text></g><g class="tick" opacity="1" transform="translate(585.0718115664496,0)"><line stroke="currentColor" y2="6"/><text fill="currentColor" y="9" dy="0.71em">2024-1</text></g><g class="tick" opacity="1" transform="translate(691.3577173496744,0)"><line stroke="currentColor" y2="6"/><text fill="currentColor" y="9" dy="0.71em">2024-2</text></g></g><g id="yAxis" fill="none" font-size="10" font-family="sans-serif" text-anchor="end"><path class="domain" stroke="currentColor" d="M0,560V0"/><g class="tick" opacity="1" transform="translate(0,560)"><line stroke="currentColor" x2="-6"/><text fill="currentColor" x="-9" dy="0.32em">0</text></g><g class="tick" opacity="1" transform="translate(0,513.3333333333333)"><line stroke="currentColor" x2="-6"/><text fill="currentColor" x="-9" dy="0.32em">10</text></g><g class="tick" opacity="1" transform="translate(0,466.6666666666667)"><line stroke="currentColor" x2="-6"/><text fill="currentColor" x="-9" dy="0.32em">20</text></g><g class="tick" opacity="1" transform="translate(0,420)"><line stroke="currentColor" x2="-6"/><text fill="currentColor" x="-9" dy="0.32em">30</text></g><g class="tick" opacity="1" transform="translate(0,373.33333333333337)"><line stroke="currentColor" x2="-6"/><text fill="currentColor" x="-9" dy="0.32em">40</text></g><g class="tick" opacity="1" transform="translate(0,326.66666666666663)"><line stroke="currentColor" x2="-6"/><text fill="currentColor" x="-9" dy="0.32em">50</text></g><g class="tick" opacity="1" transform="translate(0,280)"><line stroke="currentColor" x2="-6"/><text fill="currentColor" x="-9" dy="0.32em">60</text></g><g class="tick" opacity="1" transform="translate(0,233.33333333333331)"><line stroke="currentColor" x2="-6"/><text fill="currentColor" x="-9" dy="0.32em">70</text></g><g class="tick" opacity="1" transform="translate(0,186.66666666666669)"><line stroke="currentColor" x2="-6"/><text fill="currentColor" x="-9" dy="0.32em">80</text></g><g class="tick" opacity="1" transform="translate(0,140)"><line stroke="currentColor" x2="-6"/><text fill="currentColor" x="-9" dy="0.32em">90</text></g><g class="tick" opacity="1" transform="translate(0,93.33333333333331)"><line stroke="currentColor" x2="-6"/><text fill="currentColor" x="-9" dy="0.32em">100</text></g><g class="tick" opacity="1" transform="translate(0,46.666666666666686)"><line stroke="currentColor" x2="-6"/><text fill="currentColor" x="-9" dy="0.32em">110</text></g><g class="tick" opacity="1" transform="translate(0,0)"><line stroke="currentColor" x2="-6"/><text fill="currentColor" x="-9" dy="0.32em">120</text></g></g><text y="556" x="745" text-anchor="end" style="font-family: Arial, sans-serif; font-size: 12px; fill: rgb(123, 123, 123); font-weight: bold;">Semestre</text></g><text x="4" y="4" style="font-family: Arial, sans-serif; font-size: 12px; fill: black; font-weight: bold; dominant-baseline: hanging;"/></g><g id="grid"><rect x="0" y="0" width="805" height="600" fill="none" stroke="#ccc"/></g></g></svg>